<svg width="45" height="39" viewBox="0 0 45 39" fill="none" xmlns="http://www.w3.org/2000/svg">
<path id="Vector" d="M37.5911 0.355469H6.5C2.925 0.355469 0 2.86152 0 5.92448V32.5652C0 35.6282 2.925 38.1342 6.5 38.1342H37.5944C41.1694 38.1342 44.0944 35.6282 44.0944 32.5652V5.92448C44.0911 2.86152 41.1694 0.355469 37.5911 0.355469ZM37.1735 20.5195H31.941V36.7392H24.1117V20.5195H20.1955V14.9282H24.1117V11.5728C24.1117 7.01183 26.3217 4.29833 32.6105 4.29833H37.8381V9.88822H34.5686C32.1246 9.88822 31.9621 10.6721 31.9621 12.1297L31.941 14.9282H37.8641L37.1735 20.5195Z" fill="white"/>
</svg>
