<svg width="363" height="395" viewBox="0 0 363 395" fill="none" xmlns="http://www.w3.org/2000/svg">
<path opacity="0.3" d="M167.637 284.411C167.637 307.086 176.777 343.541 188.05 343.541C199.323 343.541 208.463 307.086 208.463 284.411C208.463 261.738 199.323 273.021 188.05 273.021C176.777 273.021 167.637 261.741 167.637 284.411Z" fill="url(#paint0_linear_209_177)"/>
<path d="M212.466 270.215H161.393V395H212.466V270.215Z" fill="url(#paint1_linear_209_177)" fill-opacity="0.7"/>
<path d="M154.59 269.899C155.721 271.277 157.447 273.138 159.856 274.949C160.836 275.685 163.871 277.869 169.719 279.885C172.549 280.861 178.441 282.623 186.296 282.87C194.636 283.129 200.89 281.544 203.554 280.773C210.858 278.662 213.879 276.079 214.986 275.051C216.96 273.221 218.236 271.345 219.021 270.002C244.302 174.5 252.677 143.306 252.828 143.345C252.884 143.36 252.225 147.898 248.933 152.008C246.171 155.457 242.811 157.04 241.218 157.769C222.32 166.422 203.388 163.985 203.388 163.985C157.4 125.717 128.412 110.934 116.422 119.631C100.99 130.825 113.712 180.916 154.59 269.899Z" fill="url(#paint2_linear_209_177)"/>
<path d="M115.167 132.124C115.167 132.124 116.538 141.051 125.79 149.635C136.592 159.655 165.644 166.64 203.733 165.837C203.733 165.837 220.622 165.881 238.284 159.195C239.105 158.885 242.304 157.639 245.703 154.936C247.893 153.194 251.018 150.64 252.199 146.408C252.45 145.501 252.511 144.258 252.648 141.77C252.812 138.83 252.973 135.534 252.145 131.505C251.615 128.929 250.908 127.146 250.637 126.498C250.637 126.498 249.989 124.939 249.119 123.43C248.186 121.813 239.892 109.955 224.408 102.563C202.245 91.9823 174.867 95.0891 169.601 95.7496C184.784 100.31 201.526 105.997 200.957 109.099C200.901 109.408 200.622 109.96 196.846 110.932C187.174 113.419 178.606 112.463 171.893 110.895C160.844 108.314 159.63 105.202 159.393 104.446C158.733 102.34 159.407 100.566 159.407 100.566C159.86 99.3751 160.778 98.3378 162.193 97.5183C163.938 96.5055 166.243 95.9429 168.931 95.7863C145.979 94.6316 123.053 104.473 117.777 115.792C117.665 116.003 117.567 116.216 117.482 116.426C117.088 117.383 116.751 118.425 116.44 119.552C116.44 119.579 116.426 119.609 116.426 119.636C115.475 122.368 114.358 126.852 115.167 132.124Z" fill="url(#paint3_linear_209_177)"/>
<path d="M158.998 104.989C161.273 108.187 166.601 111.012 174.037 112.483C187.082 115.076 201.669 112.58 206.635 106.907C207.728 105.657 208.263 104.346 208.28 103.045C208.387 98.7268 202.825 94.4628 193.639 92.2954C193.111 92.1779 192.566 92.0654 192.021 91.9529C182.461 90.0447 172.063 90.8789 165.244 93.7167C162.749 94.7295 160.748 96.004 159.423 97.5256C157.292 99.9646 157.278 102.587 158.998 104.989Z" fill="url(#paint4_linear_209_177)"/>
<g opacity="0.5">
<path d="M114.075 133.621C114.075 133.621 114.09 133.768 114.119 134.054C114.141 134.341 114.188 134.764 114.303 135.295C114.74 137.337 116.013 139.7 116.013 139.7C116.549 140.647 117.323 141.655 118.853 143.637C119.278 144.187 120.432 145.679 121.167 146.567C122.103 147.698 125.314 151.575 129.752 154.572C133.215 156.91 136.116 157.828 140.715 159.281C145.258 160.717 148.694 161.287 153.467 162.08C158.003 162.833 161.314 163.171 167.387 163.794C173.071 164.377 175.916 164.668 179.127 164.824C186.18 165.167 191.529 164.859 196.109 164.582C205.249 164.029 211.92 162.97 213.34 162.74C217.14 162.126 221.498 161.407 227.111 159.78C231.412 158.535 235.396 157.045 238.849 155.269C240.596 154.413 242.158 153.422 243.626 152.463C245.039 151.44 246.373 150.44 247.434 149.337C249.658 147.184 251.031 144.931 251.708 142.939C251.847 142.438 252.035 141.971 252.111 141.516C252.18 141.061 252.243 140.635 252.302 140.236C252.373 139.84 252.319 139.471 252.336 139.133C252.331 138.795 252.346 138.487 252.326 138.213C252.165 137.129 252.079 136.552 252.079 136.552C252.187 136.528 252.294 136.501 252.402 136.476C252.588 137.178 252.656 137.758 252.685 138.172C252.707 138.48 252.722 138.773 252.715 139.113C252.705 139.461 252.764 139.84 252.7 140.248C252.646 140.657 252.588 141.097 252.527 141.567C252.456 142.037 252.272 142.519 252.138 143.04C252.023 143.568 251.74 144.077 251.508 144.632C251.293 145.195 250.943 145.733 250.591 146.301C250.408 146.58 250.259 146.885 250.039 147.159C249.819 147.436 249.596 147.717 249.369 148.006C249.135 148.285 248.922 148.6 248.661 148.867C248.399 149.136 248.133 149.408 247.859 149.686C246.784 150.839 245.444 151.876 244.017 152.94C242.541 153.945 240.948 154.958 239.186 155.844C235.694 157.679 231.676 159.217 227.338 160.514C224.887 161.245 220.354 162.483 213.458 163.594C202.211 165.404 193.228 165.487 183.902 165.573C179.498 165.615 176.097 165.49 175.136 165.451C174.562 165.429 171.989 165.323 168.54 165.069C166.505 164.917 163.624 164.7 159.933 164.245C158.624 164.083 155.894 163.741 152.722 163.176C149.044 162.517 144.833 161.766 139.875 160.076C135.104 158.452 131.221 157.128 126.979 153.853C123.843 151.431 121.698 148.86 119.674 146.433C118.491 145.016 117.58 143.739 116.756 142.242C116.654 142.056 116.312 141.342 115.625 139.913C114.374 137.308 114.027 136.493 113.961 135.37C113.899 134.61 113.997 133.993 114.075 133.621Z" fill="white"/>
</g>
<path d="M293.719 151.817C311.603 180.329 317.314 208.966 306.474 215.779C295.633 222.592 272.348 204.998 254.467 176.486C236.586 147.976 222.089 124.861 241.715 112.526C261.342 100.192 275.838 123.305 293.719 151.817Z" fill="url(#paint5_linear_209_177)"/>
<path d="M301.277 168.014C314.232 146.592 331.334 133.222 339.479 138.159C347.622 143.093 343.724 164.462 330.769 185.885C317.817 207.302 307.314 224.671 292.568 215.737C277.822 206.803 288.323 189.437 301.277 168.014Z" fill="url(#paint6_linear_209_177)"/>
<path d="M341.73 137.34C342.221 137.34 342.705 137.112 343.013 136.684C345.787 132.829 353.409 122.4 355.354 120.455C355.97 119.839 355.973 118.838 355.354 118.219C354.736 117.603 353.739 117.603 353.121 118.219C350.596 120.744 340.863 134.262 340.45 134.837C339.941 135.546 340.1 136.532 340.809 137.044C341.087 137.242 341.41 137.34 341.73 137.34Z" fill="#4761A1"/>
<path d="M344.005 149.292C346.776 149.292 350.065 148.397 353.303 145.643C360.605 139.429 362.842 132.217 362.932 131.914C363.184 131.077 362.712 130.196 361.876 129.944C361.038 129.69 360.161 130.165 359.909 131.001C359.889 131.065 357.815 137.655 351.258 143.235C345.246 148.351 339.955 145.197 339.733 145.06C338.992 144.605 338.02 144.83 337.563 145.567C337.103 146.306 337.321 147.272 338.054 147.737C339.276 148.512 341.414 149.292 344.005 149.292Z" fill="#4761A1"/>
<path d="M332.606 144.498C332.984 144.498 333.366 144.361 333.669 144.087C334.314 143.499 334.36 142.499 333.774 141.856C333.478 141.525 326.714 133.915 331.42 128.026C336.777 121.323 341.135 118.552 341.176 118.525C341.914 118.062 342.139 117.086 341.68 116.348C341.218 115.609 340.247 115.381 339.507 115.841C339.314 115.961 334.683 118.882 328.952 126.052C323.835 132.454 328.339 140.581 331.435 143.984C331.75 144.324 332.176 144.498 332.606 144.498Z" fill="#4761A1"/>
<path d="M345.624 140.75C345.624 145.024 342.161 148.493 337.889 148.493C333.615 148.493 330.154 145.024 330.154 140.75C330.154 136.471 333.617 133.005 337.889 133.005C342.158 133.005 345.624 136.471 345.624 140.75Z" fill="url(#paint7_linear_209_177)"/>
<path d="M306.448 210.412C306.451 217.313 301.61 220.109 295.637 216.66C289.667 213.208 284.828 204.819 284.828 197.916C284.826 191.017 289.667 188.221 295.637 191.67C301.61 195.12 306.448 203.511 306.448 210.412Z" fill="url(#paint8_linear_209_177)"/>
<path d="M69.2788 151.303C51.3975 179.818 45.6864 208.452 56.5271 215.265C67.3653 222.078 90.6475 204.487 108.531 175.972C126.415 147.463 140.912 124.35 121.285 112.015C101.657 99.6809 87.1601 122.794 69.2788 151.303Z" fill="url(#paint9_linear_209_177)"/>
<path d="M61.7195 167.503C48.7649 146.08 31.6607 132.714 23.5155 137.648C15.3728 142.585 19.2682 163.951 32.2277 185.374C45.1798 206.794 55.6833 224.16 70.4268 215.226C85.1727 206.287 74.6717 188.923 61.7195 167.503Z" fill="url(#paint10_linear_209_177)"/>
<path d="M21.2677 136.826C20.7765 136.826 20.2926 136.598 19.9847 136.168C17.211 132.315 9.58879 121.886 7.64352 119.939C7.02768 119.322 7.02768 118.322 7.64352 117.703C8.25936 117.086 9.25887 117.086 9.87715 117.703C12.4016 120.23 22.1353 133.746 22.5483 134.321C23.0566 135.028 22.8977 136.016 22.189 136.528C21.9104 136.731 21.5879 136.826 21.2677 136.826Z" fill="#4761A1"/>
<path d="M18.9925 148.781C16.2213 148.781 12.9343 147.886 9.6963 145.131C2.39422 138.918 0.158139 131.706 0.0677181 131.402C-0.183994 130.566 0.28766 129.685 1.12344 129.433C1.95678 129.181 2.83899 129.653 3.0907 130.49C3.11025 130.554 5.1826 137.142 11.7418 142.724C17.8195 147.893 23.2032 144.586 23.2545 144.554C23.9925 144.087 24.9652 144.307 25.4344 145.043C25.9012 145.782 25.6812 146.758 24.9456 147.225C23.7188 147.998 21.5805 148.781 18.9925 148.781Z" fill="#4761A1"/>
<path d="M30.3946 143.986C30.0158 143.986 29.6346 143.85 29.3316 143.576C28.6864 142.988 28.64 141.99 29.2265 141.344C29.5222 141.017 36.2842 133.404 31.5774 127.513C26.2206 120.81 21.8658 118.038 21.8218 118.011C21.0838 117.549 20.8589 116.573 21.3184 115.834C21.7802 115.095 22.7504 114.868 23.4909 115.328C23.684 115.448 28.315 118.368 34.0432 125.539C39.1606 131.941 34.6566 140.067 31.5628 143.47C31.2524 143.813 30.8223 143.986 30.3946 143.986Z" fill="#4761A1"/>
<path d="M17.375 140.236C17.375 144.512 20.8403 147.979 25.1121 147.979C29.3814 147.979 32.8467 144.512 32.8467 140.236C32.8467 135.96 29.3814 132.494 25.1121 132.494C20.8403 132.494 17.375 135.96 17.375 140.236Z" fill="url(#paint11_linear_209_177)"/>
<path d="M56.5488 209.898C56.5464 216.799 61.3876 219.593 67.3578 216.146C73.328 212.694 78.1667 204.306 78.1667 197.402C78.1691 190.501 73.3255 187.705 67.3578 191.154C61.3876 194.606 56.5488 202.997 56.5488 209.898Z" fill="url(#paint12_linear_209_177)"/>
<path d="M132.498 50.8813C132.498 78.9848 155.269 101.763 183.344 101.763C211.418 101.763 234.172 78.9848 234.172 50.8813C234.175 22.7778 211.421 0 183.344 0C166.1 0 150.856 8.59887 141.662 21.7455C138.107 26.8167 135.453 32.5705 133.959 38.772C133.009 42.6494 132.498 46.7005 132.498 50.8813Z" fill="url(#paint13_linear_209_177)"/>
<path d="M229.153 66.1832C229.18 72.074 230.621 72.2892 232.371 66.6676C234.123 61.0434 235.521 51.7131 235.494 45.8248C235.468 39.9365 234.026 39.7187 232.273 45.3404C230.524 50.9621 229.126 60.2924 229.153 66.1832Z" fill="url(#paint14_linear_209_177)"/>
<path d="M184.313 65.3808C184.313 65.3808 219.46 65.5765 225.555 55.5074C227.082 52.9827 227.876 49.7413 227.876 49.7413C228.536 47.0455 229.323 43.8334 227.722 40.8318C226.603 38.7328 224.822 37.6834 223.624 36.9764C220.21 34.963 216.796 34.8603 215.684 34.8383C207.991 34.6964 204.145 34.6254 185.21 34.7869C180.796 34.8236 161.002 34.7918 152.942 34.6841C152.241 34.6744 149.372 34.6352 146.058 35.9122C144.244 36.6119 142.214 37.3922 140.767 39.3689C138.59 42.3387 139.171 46.0327 139.484 48.0289C139.484 48.0289 140.063 51.7131 142.126 54.8468C144.887 59.0374 154.958 65.2193 184.313 65.3808Z" fill="url(#paint15_linear_209_177)"/>
<path d="M136.682 66.0805C136.279 71.9076 134.702 72.0617 133.163 66.4303C131.623 60.7964 130.702 51.5101 131.107 45.6854C131.511 39.8606 133.087 39.7041 134.627 45.3355C136.166 50.967 137.085 60.2557 136.682 66.0805Z" fill="url(#paint16_linear_209_177)"/>
<defs>
<linearGradient id="paint0_linear_209_177" x1="188.051" y1="272.697" x2="188.051" y2="342.164" gradientUnits="userSpaceOnUse">
<stop offset="0.00826446" stop-color="#9ED7D9"/>
<stop offset="1" stop-color="#7EA8D6"/>
</linearGradient>
<linearGradient id="paint1_linear_209_177" x1="186.928" y1="274.438" x2="186.928" y2="392.656" gradientUnits="userSpaceOnUse">
<stop stop-color="#B2F3F5"/>
<stop offset="1" stop-color="#161733"/>
</linearGradient>
<linearGradient id="paint2_linear_209_177" x1="114.779" y1="121.082" x2="243.8" y2="245.136" gradientUnits="userSpaceOnUse">
<stop stop-color="#B0F0F2"/>
<stop offset="1" stop-color="#217ADB"/>
</linearGradient>
<linearGradient id="paint3_linear_209_177" x1="140.677" y1="90.6523" x2="227.603" y2="174.232" gradientUnits="userSpaceOnUse">
<stop stop-color="#B0F0F2"/>
<stop offset="1" stop-color="#5DA0E8"/>
</linearGradient>
<linearGradient id="paint4_linear_209_177" x1="160.093" y1="97.8762" x2="209.322" y2="107.145" gradientUnits="userSpaceOnUse">
<stop offset="0.0124" stop-color="#525EDB"/>
<stop offset="1" stop-color="#5A1C8C"/>
</linearGradient>
<linearGradient id="paint5_linear_209_177" x1="294.659" y1="144.092" x2="255.289" y2="181.946" gradientUnits="userSpaceOnUse">
<stop stop-color="#B0F0F2"/>
<stop offset="1" stop-color="#5DA0E8"/>
</linearGradient>
<linearGradient id="paint6_linear_209_177" x1="348.586" y1="147.302" x2="284.832" y2="208.601" gradientUnits="userSpaceOnUse">
<stop stop-color="#B0F0F2"/>
<stop offset="1" stop-color="#5DA0E8"/>
</linearGradient>
<linearGradient id="paint7_linear_209_177" x1="343.606" y1="135.56" x2="332.344" y2="145.756" gradientUnits="userSpaceOnUse">
<stop offset="0.0124" stop-color="#525EDB"/>
<stop offset="1" stop-color="#5A1C8C"/>
</linearGradient>
<linearGradient id="paint8_linear_209_177" x1="301.044" y1="194.793" x2="290.217" y2="213.526" gradientUnits="userSpaceOnUse">
<stop offset="0.0124" stop-color="#525EDB"/>
<stop offset="1" stop-color="#5A1C8C"/>
</linearGradient>
<linearGradient id="paint9_linear_209_177" x1="68.3397" y1="143.578" x2="107.709" y2="181.432" gradientUnits="userSpaceOnUse">
<stop stop-color="#B0F0F2"/>
<stop offset="1" stop-color="#5DA0E8"/>
</linearGradient>
<linearGradient id="paint10_linear_209_177" x1="14.4109" y1="146.789" x2="78.1636" y2="208.087" gradientUnits="userSpaceOnUse">
<stop stop-color="#B0F0F2"/>
<stop offset="1" stop-color="#5DA0E8"/>
</linearGradient>
<linearGradient id="paint11_linear_209_177" x1="19.3923" y1="135.048" x2="30.6539" y2="145.243" gradientUnits="userSpaceOnUse">
<stop offset="0.0124" stop-color="#525EDB"/>
<stop offset="1" stop-color="#5A1C8C"/>
</linearGradient>
<linearGradient id="paint12_linear_209_177" x1="61.9535" y1="194.279" x2="72.7803" y2="213.012" gradientUnits="userSpaceOnUse">
<stop offset="0.0124" stop-color="#525EDB"/>
<stop offset="1" stop-color="#5A1C8C"/>
</linearGradient>
<linearGradient id="paint13_linear_209_177" x1="146.719" y1="15.5966" x2="220.039" y2="86.0942" gradientUnits="userSpaceOnUse">
<stop stop-color="#B0F0F2"/>
<stop offset="1" stop-color="#5DA0E8"/>
</linearGradient>
<linearGradient id="paint14_linear_209_177" x1="230.335" y1="53.4009" x2="235.22" y2="54.4668" gradientUnits="userSpaceOnUse">
<stop offset="0.0124" stop-color="#525EDB"/>
<stop offset="1" stop-color="#5A1C8C"/>
</linearGradient>
<linearGradient id="paint15_linear_209_177" x1="142.019" y1="34.2367" x2="224.444" y2="60.6551" gradientUnits="userSpaceOnUse">
<stop offset="0.0124" stop-color="#4751BD"/>
<stop offset="1" stop-color="#251973"/>
</linearGradient>
<linearGradient id="paint16_linear_209_177" x1="136.287" y1="53.4149" x2="130.94" y2="54.3403" gradientUnits="userSpaceOnUse">
<stop offset="0.0124" stop-color="#525EDB"/>
<stop offset="1" stop-color="#5A1C8C"/>
</linearGradient>
</defs>
</svg>
