<svg width="92" height="94" viewBox="0 0 92 94" fill="none" xmlns="http://www.w3.org/2000/svg">
<g id="money icon">
<g id="Group">
<path id="Vector" d="M74.5584 84.7241C75.3986 84.7241 76.0876 85.4131 76.0876 86.2533C76.0876 87.0934 75.3986 87.7824 74.5584 87.7824C73.7182 87.7824 73.0293 87.0934 73.0293 86.2533C73.0293 85.4131 73.7014 84.7241 74.5584 84.7241Z" fill="#B0F0F2"/>
<path id="Vector_2" d="M68.1053 11.7122C68.9455 11.7122 69.6344 12.4011 69.6344 13.2413C69.6344 14.0815 68.9455 14.7704 68.1053 14.7704C67.2651 14.7704 66.5762 14.0815 66.5762 13.2413C66.593 12.3843 67.2651 11.7122 68.1053 11.7122Z" fill="#B0F0F2"/>
<path id="Vector_3" d="M46.9315 3.24316C47.7717 3.24316 48.4606 3.93211 48.4606 4.7723C48.4606 5.61248 47.7717 6.30143 46.9315 6.30143C46.0913 6.30143 45.4023 5.59567 45.4023 4.75549C45.4023 3.91531 46.0913 3.24316 46.9315 3.24316Z" fill="#B0F0F2"/>
<path id="Vector_4" d="M38.4647 79.4813C39.3049 79.4813 39.9938 80.1703 39.9938 81.0104C39.9938 81.8506 39.3049 82.5396 38.4647 82.5396C37.6245 82.5396 36.9355 81.8506 36.9355 81.0104C36.9355 80.1535 37.6245 79.4813 38.4647 79.4813Z" fill="#B0F0F2"/>
<path id="Vector_5" d="M26.9373 12.7202C27.7775 12.7202 28.4665 13.4092 28.4665 14.2493C28.4665 15.0895 27.7775 15.7785 26.9373 15.7785C26.0972 15.7785 25.4082 15.0895 25.4082 14.2493C25.425 13.4092 26.0972 12.7202 26.9373 12.7202Z" fill="#B0F0F2"/>
<path id="Vector_6" d="M2.55452 71.0122C3.39471 71.0122 4.08365 71.7012 4.08365 72.5413C4.08365 73.3815 3.39471 74.0705 2.55452 74.0705C1.71434 74.0705 1.02539 73.3815 1.02539 72.5413C1.02539 71.6843 1.69754 71.0122 2.55452 71.0122Z" fill="#B0F0F2"/>
<path id="Vector_7" d="M84.0351 31.8764H80.3047V28.146C80.3047 24.9197 77.7673 22.3823 74.541 22.3823H5.76365C2.53735 22.3823 0 24.9197 0 28.146V59.9889C0 63.2152 2.53735 65.7525 5.76365 65.7525H10.5023V69.483C10.5023 72.7093 13.0396 75.2466 16.2659 75.2466H84.0351C87.2614 75.2466 89.7987 72.7093 89.7987 69.483V37.6232C89.7987 34.4137 87.2614 31.8764 84.0351 31.8764ZM5.76365 63.5513C3.73041 63.5513 2.03324 61.8541 2.03324 59.8209V28.146C2.03324 26.1127 3.73041 24.4156 5.76365 24.4156H74.541C76.5742 24.4156 78.2714 26.1127 78.2714 28.146V31.8764H16.2659C13.0564 31.8764 10.5023 34.4137 10.5023 37.64V63.5681H5.76365V63.5513ZM87.7655 69.3149C87.7655 71.3482 86.0683 73.0453 84.0351 73.0453H16.2659C14.2327 73.0453 12.5355 71.3482 12.5355 69.3149V37.6232C12.5355 35.59 14.2327 33.8928 16.2659 33.8928H84.0351C86.0683 33.8928 87.7655 35.59 87.7655 37.6232V69.3149Z" fill="#B0F0F2"/>
<path id="Vector_8" d="M82.5061 43.7231C80.1368 43.7231 78.1036 41.6899 78.1036 39.3206C78.1036 38.8165 77.5995 38.3124 77.0954 38.3124H23.3909C22.8868 38.3124 22.3827 38.8165 22.3827 39.3206C22.3827 41.6899 20.3494 43.7231 17.9801 43.7231C17.476 43.7231 16.9551 44.2273 16.9551 44.7314V62.3584C16.9551 62.8625 17.4592 63.3666 17.9801 63.3666C20.3494 63.3666 22.3827 65.3999 22.3827 67.7692C22.3827 68.2733 22.8868 68.7774 23.3909 68.7774H76.9273C77.4314 68.7774 77.9355 68.2733 77.9355 67.7692C77.9355 65.3999 79.9688 63.3666 82.3381 63.3666C82.8422 63.3666 83.3631 62.8625 83.3631 62.3584V44.7482C83.5312 44.0592 83.027 43.7231 82.5061 43.7231ZM81.3299 61.3502C78.6245 61.8543 76.4232 64.0556 75.9023 66.7778H24.3991C23.895 64.0724 21.6937 61.8711 18.9715 61.3502V45.7564C21.6769 45.2523 23.8782 43.051 24.3991 40.3288H76.0703C76.5744 43.0342 78.7757 45.2355 81.4979 45.7564V61.3502H81.3299Z" fill="#B0F0F2"/>
<path id="Vector_9" d="M49.6562 43.387C44.3966 43.387 40.1621 47.6215 40.1621 52.881C40.1621 58.1406 44.3966 62.3751 49.6562 62.3751C54.9157 62.3751 59.1502 58.1406 59.1502 52.881C59.1502 47.6215 54.8989 43.387 49.6562 43.387ZM49.6562 60.325C45.5897 60.325 42.1953 56.9307 42.1953 52.8642C42.1953 48.7977 45.5897 45.4034 49.6562 45.4034C53.7227 45.4034 57.117 48.7977 57.117 52.8642C57.1002 56.9475 53.7059 60.325 49.6562 60.325Z" fill="#B0F0F2"/>
<path id="Vector_10" d="M67.6013 47.6215C64.7279 47.6215 62.3418 49.9908 62.3418 52.881C62.3418 55.7544 64.7111 58.1406 67.6013 58.1406C70.4748 58.1406 72.8609 55.7712 72.8609 52.881C72.8609 49.9908 70.4916 47.6215 67.6013 47.6215ZM67.6013 56.0905C65.9042 56.0905 64.3918 54.7294 64.3918 52.8642C64.3918 50.999 65.7529 49.6379 67.6013 49.6379C69.2985 49.6379 70.8276 50.999 70.8276 52.8642C70.8276 54.7462 69.2985 56.0905 67.6013 56.0905Z" fill="#B0F0F2"/>
<path id="Vector_11" d="M31.6931 47.6215C28.8197 47.6215 26.4336 49.9908 26.4336 52.881C26.4336 55.7544 28.8029 58.1406 31.6931 58.1406C34.5666 58.1406 36.9527 55.7712 36.9527 52.881C36.9359 49.9908 34.5666 47.6215 31.6931 47.6215ZM31.6931 56.0905C29.996 56.0905 28.4668 54.7294 28.4668 52.8642C28.4668 50.999 29.8279 49.6379 31.6931 49.6379C33.5583 49.6379 34.9194 50.999 34.9194 52.8642C34.9026 54.7462 33.3903 56.0905 31.6931 56.0905Z" fill="#B0F0F2"/>
<path id="Vector_12" d="M84.539 14.9216C88.6054 14.9216 91.9998 11.5273 91.9998 7.46082C91.9998 3.39434 88.6054 0 84.539 0C80.4725 0 77.0781 3.39434 77.0781 7.46082C77.0949 11.5441 80.4725 14.9216 84.539 14.9216ZM84.539 2.21808C87.4124 2.21808 89.7985 4.5874 89.7985 7.47763C89.7985 10.3511 87.4292 12.7372 84.539 12.7372C81.6655 12.7372 79.2794 10.3679 79.2794 7.47763C79.2962 4.5874 81.6655 2.21808 84.539 2.21808Z" fill="#B0F0F2"/>
<path id="Vector_13" d="M15.762 80.4895C12.1996 80.4895 9.32617 83.3629 9.32617 86.9253C9.32617 90.4877 12.1996 93.3611 15.762 93.3611C19.3243 93.3611 22.1978 90.4877 22.1978 86.9253C22.1978 83.3797 19.3243 80.4895 15.762 80.4895ZM15.762 91.1598C13.3927 91.1598 11.5275 89.2946 11.5275 86.9253C11.5275 84.556 13.3927 82.6908 15.762 82.6908C18.1313 82.6908 19.9965 84.556 19.9965 86.9253C19.9965 89.2946 18.1313 91.1598 15.762 91.1598Z" fill="#B0F0F2"/>
</g>
</g>
</svg>
