<svg width="93" height="90" viewBox="0 0 93 90" fill="none" xmlns="http://www.w3.org/2000/svg">
<g id="privacy icon">
<g id="Group">
<g id="Group_2">
<g id="Group_3">
<g id="Group_4">
<path id="Vector" d="M90.2438 35.6169C91.1129 35.6169 91.8255 36.3374 91.8255 37.2159C91.8255 38.0945 91.1129 38.8149 90.2438 38.8149C89.3747 38.8149 88.6621 38.0945 88.6621 37.2159C88.6795 36.3198 89.3747 35.6169 90.2438 35.6169Z" fill="#B0F0F2"/>
<path id="Vector_2" d="M89.2009 71.0405C90.0699 71.0405 90.7826 71.7609 90.7826 72.6395C90.7826 73.5181 90.0699 74.2385 89.2009 74.2385C88.3318 74.2385 87.6191 73.5181 87.6191 72.6395C87.6191 71.7609 88.3318 71.0405 89.2009 71.0405Z" fill="#B0F0F2"/>
<path id="Vector_3" d="M71.6813 86.6262C72.5504 86.6262 73.263 87.3466 73.263 88.2252C73.263 89.1038 72.5504 89.8242 71.6813 89.8242C70.8122 89.8242 70.0996 89.1038 70.0996 88.2252C70.0996 87.3466 70.8122 86.6262 71.6813 86.6262Z" fill="#B0F0F2"/>
<path id="Vector_4" d="M21.2048 1.42334C22.0738 1.42334 22.7865 2.14376 22.7865 3.02232C22.7865 3.90089 22.0738 4.62131 21.2048 4.62131C20.3357 4.62131 19.623 3.90089 19.623 3.02232C19.623 2.12619 20.3357 1.42334 21.2048 1.42334Z" fill="#B0F0F2"/>
<path id="Vector_5" d="M5.96257 62.1846C6.83164 62.1846 7.54428 62.905 7.54428 63.7836C7.54428 64.6621 6.83164 65.3825 5.96257 65.3825C5.0935 65.3825 4.38086 64.6621 4.38086 63.7836C4.38086 62.8874 5.0935 62.1846 5.96257 62.1846Z" fill="#B0F0F2"/>
<path id="Vector_6" d="M1.58171 19.135C2.45078 19.135 3.16342 19.8554 3.16342 20.734C3.16342 21.6126 2.45078 22.333 1.58171 22.333C0.712639 22.333 0 21.6126 0 20.734C0 19.8554 0.712639 19.135 1.58171 19.135Z" fill="#B0F0F2"/>
<path id="Vector_7" d="M83.5872 25.5135C76.5825 27.6396 69.5604 22.3331 69.5604 14.8829C69.5604 14.3557 69.2128 14.0043 68.8651 13.811L46.2693 5.67554C46.0954 5.67554 45.7478 5.67554 45.574 5.67554L22.9607 13.811C22.6131 13.9867 22.2655 14.3382 22.2655 14.8829C22.2655 22.1398 15.4346 27.4639 8.42985 25.5135C7.73459 25.3378 7.19576 25.6892 7.02195 26.3921C2.46801 53.6802 20.1623 78.8247 45.7478 89.8067C46.0954 89.9825 46.2693 89.9825 46.6169 89.8067C72.3762 78.649 89.5491 53.1355 84.9951 26.3921C84.8213 25.6892 84.2999 25.3378 83.5872 25.5135ZM45.9216 87.5225C21.379 76.8919 5.24904 53.1531 8.76009 27.8153C16.6513 29.2386 23.8298 23.3874 24.1774 15.5857L45.7304 7.78409L67.4572 15.7614C67.9787 23.7388 75.1746 29.5725 83.0484 27.991C86.5768 53.3288 70.273 76.8919 45.9216 87.5225Z" fill="#B0F0F2"/>
<path id="Vector_8" d="M60.8181 25.6892H31.0263C27.6891 25.6892 25.0645 28.3425 25.0645 31.7162V61.6576C25.0645 65.0313 27.6891 67.6845 31.0263 67.6845H60.8181C64.1553 67.6845 66.7799 65.0313 66.7799 61.6576V31.7162C66.7625 28.3425 63.9641 25.6892 60.8181 25.6892ZM64.4856 61.6576C64.4856 63.7837 62.73 65.5584 60.6269 65.5584H31.0263C28.9231 65.5584 27.1676 63.7837 27.1676 61.6576V31.7162C27.1676 29.59 28.9231 27.8153 31.0263 27.8153H60.8181C62.9212 27.8153 64.6768 29.59 64.6768 31.7162V61.6576H64.4856Z" fill="#B0F0F2"/>
<path id="Vector_9" d="M60.1043 31.189H31.7204C31.199 31.189 30.6602 31.7161 30.6602 32.2432V36.6712C30.6602 37.1983 31.1816 37.7255 31.7204 37.7255H32.7633C33.2848 37.7255 33.8062 38.2526 33.8062 38.7797C33.8062 39.3069 33.2848 39.834 32.7633 39.834H31.7204C31.199 39.834 30.6602 40.3612 30.6602 40.9059V52.0636C30.6602 52.5908 31.1816 53.1179 31.7204 53.1179H32.7633C33.2848 53.1179 33.8062 53.645 33.8062 54.1722C33.8062 54.6993 33.2848 55.2264 32.7633 55.2264H31.7204C31.199 55.2264 30.6602 55.7536 30.6602 56.2983V60.7263C30.6602 61.2534 31.1816 61.7805 31.7204 61.7805H60.2781C60.7996 61.7805 61.321 61.2534 61.321 60.7263V32.2432C61.3384 31.7161 60.817 31.189 60.1043 31.189ZM59.0614 59.8828H32.7633V57.581C34.5188 57.581 36.1006 56.1577 36.1006 54.2073C36.1006 52.2569 34.5188 51.0269 32.7633 51.0269V42.171C34.5188 42.171 36.1006 40.7477 36.1006 38.7973C36.1006 36.8469 34.5188 35.6169 32.7633 35.6169V33.3151H59.0441V59.8828H59.0614Z" fill="#B0F0F2"/>
<path id="Vector_10" d="M39.4208 47.8291H41.3501C41.5239 48.3562 41.6978 48.9009 41.8716 49.2523L40.6375 50.4999C40.2899 50.8513 40.2899 51.5542 40.6375 52.0989C40.9851 52.4503 41.6804 52.4503 42.2192 52.0989L43.4533 50.8513C43.9747 51.2027 44.3224 51.3784 44.8612 51.3784V53.3289C44.8612 53.856 45.3826 54.3831 45.9214 54.3831C46.4429 54.3831 46.9643 53.856 46.9643 53.3289V51.3784C47.4858 51.2027 48.0072 51.027 48.3722 50.8513L49.6063 52.0989C49.7801 52.2746 50.1278 52.4503 50.3016 52.4503C51.3445 52.4503 51.7095 51.2027 50.9968 50.4999L49.7627 49.2523C50.1104 48.7252 50.2842 48.3738 50.2842 47.8291H52.2135C52.735 47.8291 53.2564 47.3019 53.2564 46.7748C53.2564 46.2476 52.735 45.7029 52.2135 45.7029H50.2842C50.1104 45.1758 49.9366 44.6487 49.7627 44.2797L50.9968 43.0321C51.3445 42.6807 51.3445 41.9778 50.9968 41.4331C50.6492 41.0817 49.9539 41.0817 49.4151 41.4331L48.546 42.4874C48.0246 42.136 47.677 41.9603 47.1381 41.9603V40.0098C47.1381 39.4827 46.6167 38.9556 46.0953 38.9556C45.5738 38.9556 45.0524 39.4827 45.0524 40.0098V41.9603C44.5309 42.136 44.0095 42.3117 43.6445 42.4874L42.4104 41.2398C42.0628 40.8884 41.3675 40.8884 40.8287 41.2398C40.4811 41.5913 40.4811 42.3117 40.8287 42.8388L42.0628 44.0864C41.7151 44.6135 41.5413 44.9649 41.5413 45.5096H39.612C39.0905 45.5096 38.5691 46.0368 38.5691 46.5639C38.2041 47.3019 38.7255 47.8291 39.4208 47.8291ZM45.9214 43.9282C46.6167 43.9282 47.3293 44.2797 47.8508 44.6311C48.3722 45.1582 48.546 45.8786 48.546 46.5815C48.546 47.2843 48.1984 48.0048 47.8508 48.5319C46.0953 50.3066 43.2968 49.059 43.2968 46.5815C43.2968 45.8786 43.6445 45.1582 43.9921 44.6311C44.5135 44.2972 45.2088 43.9282 45.9214 43.9282Z" fill="#B0F0F2"/>
<path id="Vector_11" d="M84.2994 15.5857C88.5057 15.5857 92.0168 12.0363 92.0168 7.78407C91.9994 3.54939 88.5057 0 84.2994 0C80.0931 0 76.582 3.54939 76.582 7.80164C76.582 12.0539 80.0931 15.5857 84.2994 15.5857ZM84.2994 2.30183C87.2716 2.30183 89.7398 4.77938 89.7398 7.80164C89.7398 10.8239 87.289 13.3014 84.2994 13.3014C81.3272 13.3014 78.859 10.8239 78.859 7.80164C78.859 4.77938 81.3098 2.30183 84.2994 2.30183Z" fill="#B0F0F2"/>
<path id="Vector_12" d="M10.8641 76.5405C7.17926 76.5405 4.20703 79.5452 4.20703 83.2703C4.20703 86.9954 7.17926 90.0001 10.8641 90.0001C14.549 90.0001 17.5212 86.9954 17.5212 83.2703C17.5212 79.5452 14.549 76.5405 10.8641 76.5405ZM10.8641 87.6983C8.41334 87.6983 6.484 85.7479 6.484 83.2703C6.484 80.7928 8.41334 78.8424 10.8641 78.8424C13.3149 78.8424 15.2443 80.7928 15.2443 83.2703C15.2443 85.7479 13.3149 87.6983 10.8641 87.6983Z" fill="#B0F0F2"/>
</g>
</g>
</g>
</g>
</g>
</svg>
