<svg width="92" height="87" viewBox="0 0 92 87" fill="none" xmlns="http://www.w3.org/2000/svg">
<g id="sms icon">
<g id="_x35_30_x2C__Communication_x2C__Conversation_x2C__Dialogue_x2C__Message_x2C__Chat_1_">
<g id="Group">
<path id="Vector" d="M89.8548 7.80615H28.733C27.6604 7.80615 26.754 8.72452 26.754 9.79595V40.4082H1.99409C0.921511 40.4082 0 41.3266 0 42.398V74.6939C0 75.7653 0.921511 76.6837 1.99409 76.6837H8.71659L18.0374 83.8776C19.2611 84.7959 20.5 84.1837 20.5 82.5V76.5306H63.1159C64.1885 76.5306 65.11 75.6123 65.11 74.5408V42H70.911V49.898C70.911 51.4286 72.7389 52.347 73.9626 51.4286L83.2834 44.2347H90.0059C91.0785 44.2347 91.9849 43.3164 91.9849 42.2449V9.64289C91.6979 8.57146 90.7764 7.80615 89.8548 7.80615ZM63.1159 74.5H21C19.9274 74.5 19 74.9286 19 76V82.5L10 75.5C9.69787 75.1939 9.16979 75.0613 8.71659 75.0613H1.99409V42C3.822 42 61.1721 42 63 42L63.1159 74.5ZM87.5 42H83.2834C82.8302 42 82.4532 42.6939 82 43L73 49.898V42.2449C73 41.1735 72.5575 40.2551 71.5 40.2551C71.1979 40.2551 29.9215 40.4082 29 40.4082V9.79595H58H89.8548L90.0059 42H87.5Z" fill="#B0F0F2"/>
<path id="Vector_2" d="M11.4667 9.64282C12.5695 9.64282 13.4457 10.5306 13.4457 11.6326C13.4457 12.7347 12.5544 13.6224 11.4667 13.6224C10.364 13.6224 9.47266 12.7347 9.47266 11.6326C9.47266 10.5306 10.364 9.64282 11.4667 9.64282Z" fill="#B0F0F2"/>
<path id="Vector_3" d="M59.2934 3.97959C60.3864 3.97959 61.2724 3.08873 61.2724 1.9898C61.2724 0.890862 60.3864 0 59.2934 0C58.2005 0 57.3145 0.890862 57.3145 1.9898C57.3145 3.08873 58.2005 3.97959 59.2934 3.97959Z" fill="#B0F0F2"/>
<path id="Vector_4" d="M80.2311 53.5715C81.3339 53.5715 82.2252 54.4593 82.2252 55.5613C82.2252 56.6634 81.3339 57.5511 80.2311 57.5511C79.1283 57.5511 78.2521 56.6634 78.2521 55.5613C78.237 54.4593 79.1283 53.5715 80.2311 53.5715Z" fill="#B0F0F2"/>
<path id="Vector_5" d="M68.7661 82.5001C69.8591 82.5001 70.7451 81.6092 70.7451 80.5103C70.7451 79.4114 69.8591 78.5205 68.7661 78.5205C67.6731 78.5205 66.7871 79.4114 66.7871 80.5103C66.7871 81.6092 67.6731 82.5001 68.7661 82.5001Z" fill="#B0F0F2"/>
<path id="Vector_6" d="M32.5546 82.3469C33.6574 82.3469 34.5487 83.2347 34.5487 84.3367C34.5487 85.4388 33.6574 86.3265 32.5546 86.3265C31.4518 86.3265 30.5605 85.4388 30.5605 84.3367C30.5605 83.2347 31.4518 82.3469 32.5546 82.3469Z" fill="#B0F0F2"/>
<path id="Vector_7" d="M3.82292 30.6123C4.92571 30.6123 5.81701 31.5001 5.81701 32.6021C5.81701 33.7041 4.92571 34.5919 3.82292 34.5919C2.72013 34.5919 1.84394 33.7041 1.84394 32.6021C1.82883 31.5001 2.72013 30.6123 3.82292 30.6123Z" fill="#B0F0F2"/>
<path id="Vector_8" d="M57 16H34V18H57V16Z" fill="#B0F0F2"/>
<path id="Vector_9" d="M84 21H48V23H84V21Z" fill="#B0F0F2"/>
<path id="Vector_10" d="M73 27H34V29H73V27Z" fill="#B0F0F2"/>
<path id="Vector_11" d="M67 33H44V35H67V33Z" fill="#B0F0F2"/>
<path id="Vector_12" d="M31 50H8V52H31V50Z" fill="#B0F0F2"/>
<path id="Vector_13" d="M42 50H38V52H42V50Z" fill="#B0F0F2"/>
<path id="Vector_14" d="M42 33H38V35H42V33Z" fill="#B0F0F2"/>
<path id="Vector_15" d="M36 50H33V52H36V50Z" fill="#B0F0F2"/>
<path id="Vector_16" d="M57 56H8V58H57V56Z" fill="#B0F0F2"/>
<path id="Vector_17" d="M57 61H8V63H57V61Z" fill="#B0F0F2"/>
</g>
</g>
<path id="Vector_18" d="M16 34C18.7252 34 21 31.7227 21 28.9944C20.9887 26.2773 18.7252 24 16 24C13.2748 24 11 26.2773 11 29.0056C11 31.7339 13.2748 34 16 34ZM16 25.4769C17.9257 25.4769 19.5248 27.0665 19.5248 29.0056C19.5248 30.9448 17.9369 32.5344 16 32.5344C14.0743 32.5344 12.4752 30.9448 12.4752 29.0056C12.4752 27.0665 14.0631 25.4769 16 25.4769Z" fill="#B0F0F2"/>
<path id="Vector_19" d="M85 79C88.8153 79 92 75.8117 92 71.9921C91.9842 68.1883 88.8153 65 85 65C81.1847 65 78 68.1883 78 72.0079C78 75.8275 81.1847 79 85 79ZM85 67.0676C87.6959 67.0676 89.9347 69.2931 89.9347 72.0079C89.9347 74.7227 87.7117 76.9481 85 76.9481C82.3041 76.9481 80.0653 74.7227 80.0653 72.0079C80.0653 69.2931 82.2883 67.0676 85 67.0676Z" fill="#B0F0F2"/>
</g>
</svg>
