<svg width="93" height="92" viewBox="0 0 93 92" fill="none" xmlns="http://www.w3.org/2000/svg">
<g id="virtual box icon">
<g id="Group">
<g id="_x39_0_x2C__3d_x2C__box_x2C__cube_x2C__web_1_">
<g id="Group_2">
<path id="Vector" d="M65.6031 48.9223C45.8487 42.147 47.0786 42.4675 46.9267 42.4675C46.623 42.4675 46.3194 42.4675 46.0157 42.4675C45.8638 42.4675 26.2613 48.9223 26.1094 48.9223C25.9576 48.9223 25.8057 49.0749 25.6539 49.2275C25.1984 49.5327 24.8947 50.143 24.8947 50.7687C24.8947 50.9213 24.8947 71.3844 24.8947 76.4658C24.8947 77.2288 25.5021 78.007 26.2765 78.3122C46.9419 84.9349 46.1827 84.767 46.4864 84.767C46.6382 84.767 46.9419 84.767 47.0937 84.767C47.2456 84.767 61.7919 79.6856 65.7701 78.3122C66.5293 78.007 67 77.3967 67 76.4658C67 70.774 67 50.9213 67 50.7687C66.833 49.8531 66.3775 49.0749 65.6031 48.9223ZM46.9267 55.5L28.9318 50L46.4712 44L63.5 50L46.9267 55.5ZM26.9318 51L45.9318 57V83L26.9318 77V51ZM64.9318 77L47.9318 83V57L64.9318 51V77Z" fill="#B0F0F2"/>
<path id="Vector_2" d="M13 26H9V28H13V26Z" fill="#B0F0F2"/>
<path id="Vector_3" d="M19 26H15V28H19V26Z" fill="#B0F0F2"/>
<path id="Vector_4" d="M25 26H21V28H25V26Z" fill="#B0F0F2"/>
<path id="Vector_5" d="M81 26C81.5496 26 82 26.4504 82 27C82 27.5496 81.5496 28 81 28C80.4504 28 80 27.5496 80 27C80 26.4504 80.4504 26 81 26Z" fill="#B0F0F2"/>
<path id="Vector_6" d="M20 67C20.5496 67 21 67.4504 21 68C21 68.5496 20.5496 69 20 69C19.4504 69 19 68.5496 19 68C19 67.4504 19.4504 67 20 67Z" fill="#B0F0F2"/>
<path id="Vector_7" d="M34.4522 7.6908C35.5454 7.6908 36.4413 8.59111 36.4413 9.6898C36.4413 10.7885 35.5454 11.6888 34.4522 11.6888C33.3589 11.6888 32.4631 10.7885 32.4631 9.6898C32.4479 8.59111 33.3438 7.6908 34.4522 7.6908Z" fill="#B0F0F2"/>
<path id="Vector_8" d="M49.7586 7.6908C50.8519 7.6908 51.7477 8.59111 51.7477 9.6898C51.7477 10.7885 50.8519 11.6888 49.7586 11.6888C48.6654 11.6888 47.7695 10.7885 47.7695 9.6898C47.7695 8.59111 48.6502 7.6908 49.7586 7.6908Z" fill="#B0F0F2"/>
<path id="Vector_9" d="M63.2254 1.84644C64.3187 1.84644 65.2145 2.74675 65.2145 3.84544C65.2145 4.94413 64.3187 5.84444 63.2254 5.84444C62.1322 5.84444 61.2363 4.94413 61.2363 3.84544C61.2363 2.74675 62.1322 1.84644 63.2254 1.84644Z" fill="#B0F0F2"/>
<path id="Vector_10" d="M73 74C73.5496 74 74 74.4504 74 75C74 75.5496 73.5496 76 73 76C72.4504 76 72 75.5496 72 75C72 74.4504 72.4504 74 73 74Z" fill="#B0F0F2"/>
<path id="Vector_11" d="M36.024 28H74.9743C76.0717 28 75.999 27.542 75.999 27C75.999 26.458 76.0717 26 74.9743 26H36.024C34.9266 26 34.9995 26.458 34.9995 27C34.984 27.542 35.0812 28 36.024 28Z" fill="#B0F0F2"/>
<path id="Vector_12" d="M82.6618 17.3807H9.18633C4.13005 17.3807 0 21.5313 0 26.6128V82.768C0 87.8495 4.13005 92.0001 9.18633 92.0001H82.8288C87.8851 92.0001 92.0152 87.8495 92.0152 82.768V26.6128C91.8482 21.5313 87.7181 17.3807 82.6618 17.3807ZM9.18633 19.5001H46H64.3427H73.5H82.6618C85.5771 19.5001 90 23.5703 90 26.5001V29.5001V34.0001H2V26.6128C2 23.5456 6.271 19.5001 9.18633 19.5001ZM82.8288 90.0001H9C6.08467 90.0001 2 85.6979 2 82.768V36.0001H90V82.768C90 85.6826 85.7442 90.0001 82.8288 90.0001Z" fill="#B0F0F2"/>
<path id="Vector_13" d="M20.0397 44.5C19.4762 44.5 19 44.9524 19 45.9206V61.9206C19 63.0476 19.4841 63.5 20.0397 63.5C20.6032 63.5 21 63.0476 21 61.9206V45.9206C21 44.9524 20.6032 44.5 20.0397 44.5Z" fill="#B0F0F2"/>
<path id="Vector_14" d="M73 54.5C72.458 54.5 72 54.8877 72 55.9381V69.0617C72 70.1122 72.458 70.5 73 70.5C73.542 70.5 74 70.1122 74 69.0617V55.9381C74 54.8877 73.542 54.5 73 54.5Z" fill="#B0F0F2"/>
<path id="Vector_15" d="M79 64.5C78.458 64.5 78 64.8512 78 65.8279V71.1721C78 72.1628 78.4657 72.5 79 72.5C79.542 72.5 80 72.1488 80 71.1721V65.8279C79.9237 64.8372 79.4657 64.5 79 64.5Z" fill="#B0F0F2"/>
<path id="Vector_16" d="M14 56.5C13.458 56.5 13 56.9303 13 58.0311V63.9691C13 65.0699 13.458 65.5 14 65.5C14.542 65.5 15 65.0699 15 63.9691V58.0311C15 56.9303 14.542 56.5 14 56.5Z" fill="#B0F0F2"/>
</g>
</g>
</g>
<path id="Vector_17" d="M84.539 14.9216C88.6054 14.9216 91.9998 11.5273 91.9998 7.46082C91.9998 3.39434 88.6054 0 84.539 0C80.4725 0 77.0781 3.39434 77.0781 7.46082C77.0949 11.5441 80.4725 14.9216 84.539 14.9216ZM84.539 2.21808C87.4124 2.21808 89.7985 4.5874 89.7985 7.47763C89.7985 10.3511 87.4292 12.7372 84.539 12.7372C81.6655 12.7372 79.2794 10.3679 79.2794 7.47763C79.2962 4.5874 81.6655 2.21808 84.539 2.21808Z" fill="#B0F0F2"/>
<path id="Vector_18" d="M17 15C20.2703 15 23 12.2703 23 9C23 5.72973 20.2703 3 17 3C13.7297 3 11 5.72973 11 9C11.0135 12.2838 13.7297 15 17 15ZM17 4.78378C19.3108 4.78378 21.2297 6.68919 21.2297 9.01351C21.2297 11.3243 19.3243 13.2432 17 13.2432C14.6892 13.2432 12.7703 11.3378 12.7703 9.01351C12.7838 6.68919 14.6892 4.78378 17 4.78378Z" fill="#B0F0F2"/>
</g>
</svg>
