<svg width="44" height="38" viewBox="0 0 44 38" fill="none" xmlns="http://www.w3.org/2000/svg">
<path id="Vector" d="M18.3464 14.4281L27.6964 19.017L18.3464 23.6058V14.4281ZM44 4.07143V33.9286C44 36.1763 41.8884 38 39.2857 38H4.71429C2.11161 38 0 36.1763 0 33.9286V4.07143C0 1.82366 2.11161 0 4.71429 0H39.2857C41.8884 0 44 1.82366 44 4.07143ZM39.875 19.0254C39.875 19.0254 39.875 13.9701 39.1286 11.5442C38.7161 10.204 37.508 9.15223 35.9661 8.79598C33.1866 8.14286 22 8.14286 22 8.14286C22 8.14286 10.8134 8.14286 8.03393 8.79598C6.49196 9.15223 5.28393 10.204 4.87143 11.5442C4.125 13.9616 4.125 19.0254 4.125 19.0254C4.125 19.0254 4.125 24.0808 4.87143 26.5067C5.28393 27.8469 6.49196 28.8562 8.03393 29.2125C10.8134 29.8571 22 29.8571 22 29.8571C22 29.8571 33.1866 29.8571 35.9661 29.204C37.508 28.8478 38.7161 27.8384 39.1286 26.4982C39.875 24.0808 39.875 19.0254 39.875 19.0254Z" fill="white"/>
</svg>
